<?xml version="1.0" standalone="no"?>
<!DOCTYPE svg PUBLIC "-//W3C//DTD SVG 20010904//EN"
 "http://www.w3.org/TR/2001/REC-SVG-20010904/DTD/svg10.dtd">
<svg version="1.0" xmlns="http://www.w3.org/2000/svg"
 width="72.000000pt" height="72.000000pt" viewBox="0 0 72.000000 72.000000"
 preserveAspectRatio="xMidYMid meet">
<metadata>
Created by potrace 1.11, written by Peter Selinger 2001-2013
</metadata>
<g transform="translate(0.000000,72.000000) scale(0.100000,-0.100000)"
fill="#000000" stroke="none">
<path d="M277 699 c-122 -29 -228 -137 -256 -260 -6 -24 -8 -45 -6 -47 3 -3
44 21 70 41 9 7 114 81 292 207 72 50 76 55 53 61 -35 10 -108 9 -153 -2z"/>
<path d="M458 682 c-3 -8 -136 -105 -313 -227 -100 -69 -135 -100 -135 -120 0
-33 40 -136 69 -178 66 -97 164 -141 299 -135 104 4 164 29 228 95 66 67 88
123 92 225 4 100 -9 152 -58 223 -42 62 -170 144 -182 117z m112 -327 l0 -105
30 0 c25 0 30 -4 30 -25 0 -25 0 -25 -95 -25 -95 0 -95 0 -95 25 0 21 5 25 30
25 l30 0 0 65 0 65 -30 0 c-23 0 -30 4 -30 20 0 13 7 20 20 20 11 0 28 9 37
20 10 11 30 20 45 20 l28 0 0 -105z m-360 10 c0 -33 -2 -35 -35 -35 -33 0 -35
2 -35 35 0 33 2 35 35 35 33 0 35 -2 35 -35z m150 0 c0 -33 -2 -35 -35 -35
-33 0 -35 2 -35 35 0 33 2 35 35 35 33 0 35 -2 35 -35z m-150 -130 c0 -33 -2
-35 -35 -35 -33 0 -35 2 -35 35 0 33 2 35 35 35 33 0 35 -2 35 -35z m150 0 c0
-33 -2 -35 -35 -35 -33 0 -35 2 -35 35 0 33 2 35 35 35 33 0 35 -2 35 -35z"/>
</g>
</svg>
